<?xml version="1.0" encoding="iso-8859-1"?>
<!-- Uploaded to: SVG Repo, www.svgrepo.com, Generator: SVG Repo Mixer Tools -->
<svg height="800px" width="800px" version="1.1" id="Layer_1" xmlns="http://www.w3.org/2000/svg" xmlns:xlink="http://www.w3.org/1999/xlink" 
	 viewBox="0 0 512 512" xml:space="preserve">
<g transform="translate(1)">
	<polygon style="fill:#FFE100;" points="7.533,366.933 502.467,366.933 502.467,145.067 7.533,145.067 	"/>
	<polygon style="fill:#FFA800;" points="476.867,366.933 502.467,366.933 502.467,145.067 476.867,145.067 	"/>
	<polygon style="fill:#FFFFFF;" points="7.533,366.933 33.133,366.933 33.133,145.067 7.533,145.067 	"/>
	<path d="M502.467,375.467H7.533c-5.12,0-8.533-3.413-8.533-8.533V145.067c0-5.12,3.413-8.533,8.533-8.533h494.933
		c5.12,0,8.533,3.413,8.533,8.533v221.867C511,372.053,507.587,375.467,502.467,375.467z M16.067,358.4h477.867V153.6H16.067V358.4z
		"/>
	<path d="M502.467,264.533H485.4c-5.12,0-8.533-3.413-8.533-8.533c0-5.12,3.413-8.533,8.533-8.533h17.067
		c5.12,0,8.533,3.413,8.533,8.533C511,261.12,507.587,264.533,502.467,264.533z"/>
	<path d="M435.907,264.533h-33.28c-5.12,0-8.533-3.413-8.533-8.533c0-5.12,3.413-8.533,8.533-8.533h33.28
		c5.12,0,8.533,3.413,8.533,8.533C444.44,261.12,441.027,264.533,435.907,264.533z M353.987,264.533h-33.28
		c-5.12,0-8.533-3.413-8.533-8.533c0-5.12,3.413-8.533,8.533-8.533h33.28c5.12,0,8.533,3.413,8.533,8.533
		C362.52,261.12,358.253,264.533,353.987,264.533z M271.213,264.533h-33.28c-5.12,0-8.533-3.413-8.533-8.533
		c0-5.12,3.413-8.533,8.533-8.533h33.28c5.12,0,8.533,3.413,8.533,8.533C279.747,261.12,276.333,264.533,271.213,264.533z
		 M189.293,264.533h-33.28c-5.12,0-8.533-3.413-8.533-8.533c0-5.12,3.413-8.533,8.533-8.533h33.28c5.12,0,8.533,3.413,8.533,8.533
		C197.827,261.12,193.56,264.533,189.293,264.533z M106.52,264.533H74.093c-5.12,0-8.533-3.413-8.533-8.533
		c0-5.12,3.413-8.533,8.533-8.533h33.28c5.12,0,8.533,3.413,8.533,8.533C115.907,261.12,111.64,264.533,106.52,264.533z"/>
	<path d="M24.6,264.533H7.533C2.413,264.533-1,261.12-1,256c0-5.12,3.413-8.533,8.533-8.533H24.6c5.12,0,8.533,3.413,8.533,8.533
		C33.133,261.12,29.72,264.533,24.6,264.533z"/>
</g>
</svg>